<svg xmlns="http://www.w3.org/2000/svg" width="101" height="101" fill="none"><path fill="#487C93" d="M94.943 53.43a2.715 2.715 0 0 1-.86-1.393c-2.215-8.508-9.338-14.45-17.32-14.45-1.47 0-2.935.198-4.354.59-.98.269-2.007-.164-2.579-1.087-3.725-6.011-9.864-9.6-16.422-9.6-4.986 0-9.758 2.056-13.435 5.79-3.655 3.712-5.926 8.757-6.394 14.207-.081.942-.602 1.768-1.372 2.175-.24.126-.481.264-.718.41a2.282 2.282 0 0 1-.644.271c-3.362.834-6.416 2.933-8.6 5.91-2.243 3.061-3.429 6.764-3.429 10.712C18.816 76.358 25.735 84 34.24 84h51.339C94.08 84 101 76.358 101 66.965c-.001-5.346-2.208-10.279-6.057-13.535Z"/><path fill="#FAD805" d="M19.139 40.536c0 3.361 1.117 6.534 3.112 8.978 2.066-1.727 4.42-3.016 6.924-3.766.869-6.142 3.59-11.777 7.76-16.013.196-.199.395-.392.596-.584-1.886-1.302-4.064-2.001-6.343-2.001-6.644 0-12.05 6.005-12.05 13.386Zm12.05-20.579c1.338 0 2.423-1.205 2.423-2.692V9.692C33.612 8.205 32.527 7 31.19 7s-2.423 1.205-2.423 2.692v7.574c0 1.486 1.085 2.691 2.423 2.691Zm-12.573 1.772c.45.863 1.264 1.346 2.101 1.346.411 0 .828-.116 1.21-.36 1.159-.744 1.556-2.39.887-3.678l-3.409-6.559c-.669-1.287-2.151-1.729-3.31-.985-1.159.743-1.556 2.389-.887 3.677l3.408 6.559ZM5.932 27.445l5.904 3.787c.381.245.798.361 1.21.361.837 0 1.651-.483 2.1-1.346.67-1.288.272-2.934-.887-3.677l-5.904-3.787c-1.159-.744-2.64-.303-3.31.985-.67 1.287-.272 2.934.887 3.677ZM3.423 43.228h6.818c1.338 0 2.423-1.205 2.423-2.692s-1.085-2.692-2.423-2.692H3.423C2.085 37.844 1 39.05 1 40.536s1.085 2.692 2.423 2.692Zm11.723 7.597c-.67-1.287-2.151-1.729-3.31-.985l-5.904 3.787c-1.159.743-1.556 2.39-.887 3.677.45.863 1.263 1.346 2.1 1.346.412 0 .829-.116 1.21-.36l5.904-3.788c1.159-.743 1.556-2.39.887-3.677Zm25.305-28.111c.382.245.798.361 1.21.361.837 0 1.651-.483 2.1-1.346l3.409-6.56c.67-1.287.272-2.933-.887-3.677-1.16-.743-2.64-.302-3.31.986l-3.409 6.559c-.67 1.288-.272 2.934.887 3.677Z"/></svg>