<svg xmlns="http://www.w3.org/2000/svg" width="81" height="69" fill="none"><path fill="#487C93" d="M34.721 1.286c-11.099.439-20.883 2.169-26.8 4.737C2.22 8.5-.013 11.56 1.424 14.927c2.048 4.764 12.704 8.304 28.88 9.595 4.25.333 15.318.333 19.568 0 5.81-.466 10.365-1.118 14.677-2.116 1.3-.293 2.522-.572 2.69-.599.337-.066.337-.053.108.586-.383 1.104-.688 1.503-1.636 2.129-5.091 3.367-19.615 5.496-33.038 4.844-11.329-.545-19.355-2.276-23.911-5.137-.627-.399-1.483-.439-2.263-.106-.749.306-1.116.878-1.116 1.73s.428 1.33 1.988 2.236c3.852 2.235 11.038 3.992 19.492 4.777 7.323.692 16.848.586 23.62-.24.796-.092 1.484-.159 1.514-.132.03.026-.015.12-.107.213-.076.093-.23.425-.321.732-.138.425-.321.638-.871.958-3.135 1.81-11.054 2.98-18.59 2.755-7.003-.213-12.476-1.251-15.243-2.915-.658-.4-.948-.492-1.53-.492-1.406 0-2.246.812-2.124 2.09.061.558.168.798.52 1.117 1.421 1.29 5.182 2.595 9.524 3.314 3.364.546 5.84.718 10.564.718 4.755.014 6.483-.106 10.213-.665 1.208-.173 2.217-.32 2.263-.32.045 0-.062.16-.23.347a2.166 2.166 0 0 0-.412.798c-.108.506-.429.745-1.82 1.358-1.804.785-5.228 1.53-8.79 1.916-2.156.226-10.534.226-12.69 0-5.825-.626-10.702-2.143-10.702-3.314 0-.36-.473-.985-.963-1.237-.642-.346-1.712-.346-2.354 0-.688.359-1.024.984-.994 1.85.092 3.406 6.253 5.935 16.19 6.667 2.86.213 10.32.106 12.736-.2 7.46-.905 11.863-2.595 13.392-5.123.199-.32.275-.759.29-1.424 0-.905-.03-.985-.52-1.424-.274-.253-.687-.493-.917-.546-.336-.08-.214-.147.979-.52 3.929-1.237 5.947-2.754 6.42-4.83.154-.666-.076-1.344-.61-1.837l-.49-.452.856-.146c7.247-1.278 12.858-3.58 14.86-6.122 1.438-1.837 1.422-3.94-.045-4.605l-.505-.226.382-.133c3.899-1.384 7.048-3.447 8.088-5.31 1.865-3.314.107-6.428-5.107-8.997C65.818 2.776 50.163.673 34.721 1.286Zm9.57 3.846c7.293.253 12.614.838 18.056 1.996 6.742 1.437 11.558 3.593 12.277 5.496.244.626-.03 1.211-.933 1.97-3.455 2.941-12.796 5.23-25.042 6.135-3.593.266-14.432.226-18.04-.066-5.106-.426-9.555-1.038-13.194-1.837-6.237-1.358-10.962-3.46-11.818-5.27-.596-1.224 1.025-2.702 4.587-4.166 5.61-2.329 14.814-3.886 25.042-4.245 4.28-.146 5.014-.16 9.066-.013Z"/><path fill="#487C93" d="M34.431 8.725c-8.057.559-14.37 1.797-18.544 3.62-1.07.466-1.239.585-1.514 1.131-.352.692-.275 1.33.214 1.93.703.865 1.82.985 3.333.36 3.363-1.398 8.286-2.41 14.37-2.982 3.15-.293 10.305-.4 13.76-.213 7.277.413 13.21 1.477 17.26 3.088 1.361.545 2.064.638 2.737.332.78-.359 1.147-.825 1.223-1.57.092-1.038-.32-1.49-1.941-2.196-3.44-1.49-9.204-2.702-15.686-3.314-2.645-.24-12.628-.372-15.212-.186ZM18.41 49.462c-1.285.559-1.606 1.943-.72 3.247.948 1.424 3.578 2.489 7.645 3.088 2.522.359 8.47.332 10.992-.067 3.241-.519 5.764-1.437 6.757-2.462 1.453-1.49 1.223-3.327-.474-3.9-.596-.186-.795-.199-1.33-.066-.642.173-1.498.825-1.498 1.145 0 .292-.52.572-1.697.918-3.379.985-9.295 1.145-13.5.346-1.956-.373-2.889-.785-3.24-1.41-.2-.36-.505-.613-.979-.826-.84-.36-1.131-.372-1.957-.013Zm25.27 6.894c-.351.16-.749.465-.902.692-.565.825-2.63 1.25-6.207 1.25-2.95 0-3.7-.146-4.326-.811-1.315-1.371-3.93-.573-3.93 1.21 0 2.09 2.57 3.328 7.263 3.488 5.427.186 9.8-.972 10.946-2.902 1.085-1.85-.826-3.82-2.844-2.927Zm-5.977 6.787c-.276.146-.582.373-.689.506-.412.505-3.134.825-5.09.585-1.04-.133-1.285-.213-1.79-.612-2.017-1.584-4.693.266-3.485 2.422.596 1.091 2.125 1.73 4.831 2.05 2.309.266 5.978-.107 7.43-.759 1.82-.825 2.553-2.17 1.85-3.46-.504-.918-2.033-1.278-3.057-.732Z"/></svg>