<svg xmlns="http://www.w3.org/2000/svg" width="101" height="101" fill="none"><path fill="#6CA4BC" d="M37.331 56.689c0-11.194 9.04-20.301 20.153-20.301 2.4 0 4.728.414 6.943 1.235A18.23 18.23 0 0 1 73 32.119c-2.936-6.645-9.08-11.054-15.858-11.054-1.441 0-2.878.196-4.27.583-1.026.285-2.104-.172-2.705-1.15C46.512 14.552 40.487 11 34.053 11c-4.893 0-9.576 2.035-13.184 5.73-3.586 3.671-5.814 8.663-6.274 14.054-.085.997-.632 1.87-1.44 2.3-.234.126-.47.262-.7.405a2.39 2.39 0 0 1-.678.287c-3.292.823-6.281 2.895-8.42 5.835C1.162 42.63 0 46.287 0 50.184 0 59.456 6.774 67 15.1 67h18.131a19.375 19.375 0 0 1 4.119-9.442c-.013-.29-.019-.581-.019-.87Z"/><path fill="#487C93" d="M91.26 56.03c-1.324-.506-2.01-2.05-1.531-3.451a11 11 0 0 0 .591-3.564c0-5.118-3.53-9.497-8.485-11.225a14.232 14.232 0 0 0-4.693-.79c-.865 0-1.717.08-2.549.23-3.402.612-6.438 2.431-8.415 5.127-.712.972-1.956 1.312-3.024.825a16.091 16.091 0 0 0-6.712-1.437c-8.337 0-15.12 6.205-15.12 13.832 0 .49.028.991.087 1.489a2.786 2.786 0 0 1-.764 2.275c-1.687 1.714-2.826 3.785-3.337 6.002A11.878 11.878 0 0 0 37 68.014c0 .934.11 1.845.317 2.723C38.69 76.594 44.399 81 51.215 81h34.57C93.623 81 100 75.175 100 68.014c0-5.249-3.43-9.953-8.74-11.984Z"/></svg>