<svg xmlns="http://www.w3.org/2000/svg" width="101" height="101" fill="none"><path fill="#487C93" d="M97 51.384c0-5.468-2.498-10.514-6.853-13.845a2.754 2.754 0 0 1-.973-1.426c-2.508-8.704-10.567-14.782-19.6-14.782-1.663 0-3.321.202-4.927.602a2.737 2.737 0 0 1-2.919-1.111C57.513 14.672 50.566 11 43.145 11a22.428 22.428 0 0 0-15.204 5.924 22.608 22.608 0 0 0-7.235 14.534 2.752 2.752 0 0 1-1.553 2.225c-.271.13-.545.27-.812.419-.229.127-.475.22-.73.278-3.804.853-7.26 3-9.73 6.046C5.34 43.557 4 47.346 4 51.384c0 9.61 7.829 17.428 17.452 17.428h58.096C89.171 68.812 97 60.993 97 51.384Z"/><path fill="#487C93" d="M65.73 81.336a1.59 1.59 0 0 1-.458-.068 1.533 1.533 0 0 1-1.036-1.92l1.881-6.04a1.567 1.567 0 0 1 1.952-1.02 1.533 1.533 0 0 1 1.036 1.92l-1.881 6.04a1.56 1.56 0 0 1-1.494 1.088ZM55.141 90.11c-.177 0-.357-.021-.535-.067-.962-.25-1.504-1.109-1.209-1.92l2.195-6.04c.295-.812 1.315-1.269 2.278-1.02.962.249 1.504 1.109 1.209 1.92l-2.196 6.04c-.24.662-.962 1.087-1.742 1.087Zm-13.963-8.657c.962.249 1.504 1.108 1.208 1.92l-2.195 6.04c-.24.662-.962 1.087-1.742 1.087-.177 0-.357-.022-.535-.068-.963-.249-1.504-1.108-1.209-1.92l2.195-6.04c.295-.811 1.315-1.268 2.278-1.02Zm7.547-.117c-.202 0-.408-.022-.612-.068-1.1-.249-1.718-1.109-1.381-1.92l2.509-6.04c.337-.812 1.502-1.269 2.602-1.02 1.1.25 1.72 1.109 1.382 1.92l-2.509 6.04c-.275.662-1.1 1.088-1.991 1.088Zm-17.788 0a2.33 2.33 0 0 1-.534-.062c-.963-.226-1.505-1.008-1.21-1.746l2.196-5.49c.295-.738 1.314-1.153 2.277-.927.963.226 1.504 1.008 1.209 1.746l-2.195 5.49c-.24.602-.962.989-1.743.989Z"/></svg>