<svg xmlns="http://www.w3.org/2000/svg" width="78" height="67" fill="none"><path fill="#487C93" d="M28.53 47.588a.794.794 0 0 0-.095-.371.994.994 0 0 0-.267-.315 1.3 1.3 0 0 0-.401-.21 1.534 1.534 0 0 0-.946 0 1.3 1.3 0 0 0-.4.21.993.993 0 0 0-.268.315.794.794 0 0 0-.094.371c0 .258.13.505.362.687.231.182.546.284.873.284.328 0 .642-.102.874-.284.231-.182.361-.43.361-.687Zm2.058 0c0 .687-.347 1.345-.965 1.83-.617.486-1.455.758-2.329.758-.873 0-1.711-.272-2.33-.758-.617-.485-.964-1.143-.964-1.83 0-.686.347-1.345.965-1.83.618-.485 1.456-.758 2.33-.758.873 0 1.71.273 2.328.758.618.485.965 1.144.965 1.83Zm6.592-.647c-1.332 0-2.622.363-3.652 1.027-1.03.663-1.736 1.586-1.998 2.612l-.094.376a.81.81 0 0 0 .2.712c.183.208.46.352.775.401.315.05.642.001.912-.136.27-.136.462-.35.535-.596l.097-.376c.162-.628.615-1.186 1.27-1.566.657-.38 1.469-.556 2.28-.492.811.063 1.564.36 2.111.835.548.474.853 1.09.855 1.731 0 .34-.085.677-.25.991-.166.314-.409.6-.715.84s-.669.431-1.069.562c-.4.13-.828.197-1.26.197H26.058c-.328 0-.642.102-.874.284-.231.182-.361.429-.361.686 0 .258.13.505.361.687.232.182.546.284.874.284h11.117c1.505-.028 2.937-.517 3.989-1.363s1.641-1.982 1.642-3.165c0-1.183-.588-2.32-1.64-3.166-1.051-.846-2.482-1.336-3.987-1.365Zm9.961 6.47a4.886 4.886 0 0 0-2.12.475c-.637.309-1.152.752-1.487 1.278l-.05.078a.831.831 0 0 0-.148.37.784.784 0 0 0 .048.388c.05.125.13.24.238.34.108.1.24.182.39.241a1.547 1.547 0 0 0 .968.046c.157-.044.3-.112.423-.201a1.04 1.04 0 0 0 .289-.316l.05-.078c.159-.247.418-.445.737-.562a1.958 1.958 0 0 1 1.021-.083c.343.064.648.216.867.433.219.216.338.484.339.761v.066c0 .343-.174.672-.483.915-.308.243-.727.38-1.164.38h-21c-.328 0-.642.101-.874.283-.231.182-.361.43-.361.687 0 .257.13.504.361.686.232.182.546.284.874.284h15.853c.382 0 .748.12 1.018.333.27.213.421.501.42.802 0 .3-.153.588-.423.8-.271.212-.638.33-1.02.33-.239 0-.474-.045-.684-.133a1.388 1.388 0 0 1-.523-.372l-.027-.03a1.297 1.297 0 0 0-.786-.405c-.32-.048-.65.005-.92.147s-.458.363-.523.613a.804.804 0 0 0 .177.725l.026.03c.359.42.844.765 1.412 1.004a4.796 4.796 0 0 0 1.848.362c.638 0 1.267-.122 1.831-.357a3.758 3.758 0 0 0 1.406-.989c.36-.414.584-.892.655-1.39a2.477 2.477 0 0 0-.249-1.47h1.509c1.092 0 2.14-.34 2.911-.947.773-.607 1.206-1.43 1.206-2.288v-.065c0-.84-.425-1.647-1.181-2.242-.757-.594-1.784-.928-2.854-.928ZM33.882 65.383c-.327 0-.642-.102-.873-.284-.232-.182-.362-.429-.362-.686 0-.258.13-.505.362-.687.231-.182.546-.284.873-.284.328 0 .642.102.874.284.231.182.362.43.362.687 0 .257-.13.504-.362.686a1.424 1.424 0 0 1-.874.284Zm0 1.618c.874 0 1.712-.273 2.33-.758.617-.486.964-1.144.964-1.83 0-.687-.347-1.345-.964-1.83-.618-.486-1.456-.758-2.33-.758-.873 0-1.711.272-2.329.758-.618.485-.965 1.143-.965 1.83 0 .686.347 1.344.965 1.83.618.485 1.456.758 2.33.758Zm16.06-18.118c0-.257-.131-.504-.363-.686a1.424 1.424 0 0 0-.873-.284c-.328 0-.642.102-.874.284-.231.182-.361.429-.361.686 0 .258.13.505.361.687.232.182.546.284.874.284.327 0 .642-.102.873-.284.232-.182.362-.43.362-.687Zm2.058 0c0 .687-.347 1.345-.965 1.83-.618.486-1.455.759-2.33.759-.873 0-1.71-.273-2.328-.758-.618-.486-.965-1.144-.965-1.83 0-.687.347-1.345.965-1.83.617-.486 1.455-.759 2.329-.759.873 0 1.711.273 2.33.758.617.486.964 1.144.964 1.83Z"/><path fill="#487C93" d="M75 28.64c0-3.878-1.96-7.457-5.38-9.819a1.96 1.96 0 0 1-.763-1.01c-1.968-6.174-8.295-10.485-15.385-10.485a17.62 17.62 0 0 0-3.867.428c-.87.195-1.783-.118-2.291-.788C44.004 2.604 38.552 0 32.727 0c-4.43 0-8.668 1.492-11.934 4.201-3.247 2.693-5.264 6.353-5.68 10.308-.072.683-.534 1.283-1.218 1.578-.214.092-.428.192-.638.297a2.3 2.3 0 0 1-.573.197c-2.986.605-5.699 2.128-7.638 4.288C3.053 23.09 2 25.776 2 28.64 2 35.456 8.145 41 15.699 41H61.3C68.854 41 75 35.455 75 28.64Z"/></svg>