<svg xmlns="http://www.w3.org/2000/svg" width="79" height="67" fill="none"><path fill="#487C93" d="M73 40.942c0-3.784-1.8-7.275-4.937-9.58a1.905 1.905 0 0 1-.701-.986c-1.807-6.022-7.613-10.228-14.12-10.228-1.199 0-2.393.14-3.55.417a2.012 2.012 0 0 1-2.103-.77C44.552 15.54 39.547 13 34.201 13c-4.065 0-7.955 1.456-10.953 4.099-2.98 2.627-4.83 6.198-5.213 10.056a1.908 1.908 0 0 1-1.118 1.54c-.196.09-.393.187-.585.29a2.024 2.024 0 0 1-.526.191c-2.74.59-5.23 2.076-7.01 4.184C6.966 35.526 6 38.148 6 40.942 6 47.59 11.64 53 18.573 53h41.854C67.36 53 73 47.59 73 40.942Z"/><path fill="#8FA4AE" d="M41 57c0-.552-.5-1-1-1H1c-.5 0-1 .448-1 1s.5 1 1 1h39c.5 0 1-.448 1-1ZM75 5.5c0-.828-.65-1.5-1.45-1.5h-38.1c-.8 0-1.45.672-1.45 1.5S34.65 7 35.45 7h38.1c.8 0 1.45-.672 1.45-1.5ZM70.585 20h-37.17c-.781 0-1.415.672-1.415 1.5s.634 1.5 1.415 1.5h37.17c.781 0 1.415-.672 1.415-1.5s-.634-1.5-1.415-1.5ZM2 49c-.5 0-1 .448-1 1s.5 1 1 1h15c.5 0 1-.448 1-1s-.5-1-1-1H2Zm6 13c-.5 0-1 .448-1 1s.5 1 1 1h15c.5 0 1-.448 1-1s-.5-1-1-1H8Zm33.462-50c-.807 0-1.462.672-1.462 1.5s.655 1.5 1.462 1.5h14.075c.808 0 1.463-.672 1.463-1.5s-.655-1.5-1.462-1.5H41.463ZM40 49H25c-.5 0-1 .448-1 1s.5 1 1 1h15c.5 0 1-.448 1-1s-.5-1-1-1Zm5 13H30c-.5 0-1 .448-1 1s.5 1 1 1h15c.5 0 1-.448 1-1s-.5-1-1-1Zm32.537-50H63.462c-.807 0-1.462.672-1.462 1.5s.655 1.5 1.462 1.5h14.075c.808 0 1.463-.672 1.463-1.5 0-.829-.655-1.5-1.463-1.5Z"/></svg>