<svg xmlns="http://www.w3.org/2000/svg" width="77" height="67" fill="none"><path fill="#487C93" d="M75 36.75c0-3.216-1.665-6.183-4.569-8.142a1.63 1.63 0 0 1-.648-.838c-1.672-5.12-7.046-8.694-13.067-8.694-1.108 0-2.212.119-3.284.354a2.093 2.093 0 0 1-1.098-.06 1.76 1.76 0 0 1-.848-.594C48.674 15.159 44.044 13 39.096 13c-3.76 0-7.36 1.237-10.135 3.484-2.757 2.233-4.47 5.269-4.824 8.547-.027.275-.136.54-.317.769a1.837 1.837 0 0 1-.718.54c-.181.076-.362.16-.542.246a1.92 1.92 0 0 1-.486.164c-2.536.502-4.84 1.765-6.486 3.556C13.894 32.148 13 34.376 13 36.75 13 42.402 18.22 47 24.635 47h38.73C69.781 47 75 42.402 75 36.75Z"/><path fill="#E6C705" d="M13.82 21.085c0 2.14.78 4.159 2.172 5.715a14.103 14.103 0 0 1 4.832-2.397 17.542 17.542 0 0 1 5.83-10.567 8.266 8.266 0 0 0-4.426-1.274c-4.637 0-8.408 3.824-8.408 8.523Zm8.885-12.71c1.091 0 1.975-.779 1.975-1.74V1.74c0-.96-.884-1.74-1.976-1.74-1.09 0-1.974.779-1.974 1.74v4.896c0 .96.883 1.739 1.974 1.739Zm-9.709.825c.18.26.438.475.746.624.309.149.658.227 1.013.226.355 0 .704-.079 1.012-.228.97-.469 1.303-1.507.743-2.32l-2.853-4.14c-.274-.39-.717-.675-1.235-.792a2.367 2.367 0 0 0-1.535.17c-.97.47-1.303 1.508-.743 2.321L12.997 9.2Zm-9.144 4.06 4.337 2.42c.28.158.586.232.888.232.615 0 1.213-.31 1.543-.861.492-.823.2-1.876-.651-2.35l-4.337-2.42c-.851-.477-1.94-.194-2.432.629-.491.822-.2 1.875.652 2.35Zm-2.006 9.352h5.193c1.02 0 1.846-.75 1.846-1.675 0-.926-.827-1.675-1.846-1.675H1.846c-1.02 0-1.846.75-1.846 1.674 0 .926.826 1.675 1.846 1.675Zm8.774 5.048c-.491-.823-1.58-1.106-2.431-.63l-4.337 2.42c-.851.475-1.143 1.528-.652 2.35.33.553.928.862 1.543.862.302 0 .608-.075.889-.232l4.337-2.42c.85-.475 1.143-1.528.651-2.35ZM29.497 9.822c.274.154.573.228.869.228.6 0 1.184-.305 1.507-.85l2.445-4.139c.48-.812.195-1.85-.636-2.32a1.76 1.76 0 0 0-2.376.622L28.861 7.5a1.68 1.68 0 0 0 .637 2.321h-.001Z"/><path fill="#487C93" d="M61 51c0-.552-.523-1-1.168-1H29.168c-.645 0-1.168.448-1.168 1s.523 1 1.168 1h30.664c.645 0 1.168-.448 1.168-1Zm-3.132 12H28.132c-.625 0-1.132.448-1.132 1s.507 1 1.132 1h29.736c.625 0 1.132-.448 1.132-1s-.507-1-1.132-1Zm-23.664-6C33.54 57 33 57.448 33 58s.54 1 1.204 1h11.592C46.46 59 47 58.552 47 58s-.54-1-1.204-1H34.204Zm29.592 0H52.204C51.54 57 51 57.448 51 58s.54 1 1.204 1h11.592C64.46 59 65 58.552 65 58s-.54-1-1.204-1Z"/></svg>