<svg xmlns="http://www.w3.org/2000/svg" width="88" height="68" fill="none"><path fill="#487C93" d="M73 22.353c0-3.027-1.558-5.82-4.274-7.663a1.533 1.533 0 0 1-.607-.79c-1.564-4.817-6.59-8.182-12.223-8.182-1.038 0-2.072.112-3.073.334-.691.152-1.417-.093-1.82-.615C48.373 2.031 44.04 0 39.413 0c-3.52 0-6.887 1.164-9.482 3.28-2.58 2.1-4.182 4.958-4.512 8.044-.058.533-.425 1.001-.968 1.231-.17.072-.34.15-.507.232-.143.07-.296.122-.455.154-2.373.472-4.528 1.66-6.069 3.347-1.583 1.733-2.42 3.83-2.42 6.065C15 27.673 19.882 32 25.884 32h36.232C68.117 32 73 27.672 73 22.353ZM13.64 51.222c-.779 1.965.008 4.125 1.754 4.817 1.745.691 3.798-.344 4.577-2.309.61-1.54.056-6.177-.305-8.476-1.837 1.427-5.417 4.428-6.027 5.968Zm13.65-10.62c-.711 1.796-.078 3.737 1.413 4.327 1.49.59 3.28-.39 3.992-2.186.558-1.408.177-5.598-.087-7.672-1.613 1.33-4.76 4.123-5.318 5.531Zm34.754 10.62c-.778 1.965.01 4.125 1.755 4.817 1.745.691 3.799-.344 4.577-2.309.61-1.54.057-6.177-.305-8.476-1.837 1.427-5.416 4.428-6.026 5.968ZM49.798 61.845c-.846 2.133.096 4.514 2.097 5.308 2.002.793 4.319-.298 5.164-2.432.663-1.673-.064-6.76-.523-9.283-2.062 1.524-6.075 4.734-6.738 6.407Zm-24-1c-.845 2.133.096 4.514 2.097 5.308 2.002.793 4.319-.298 5.164-2.432.663-1.673-.064-6.76-.523-9.283-2.062 1.524-6.075 4.734-6.738 6.407Zm14.246-9.623c-.778 1.965.01 4.125 1.755 4.817 1.745.691 3.799-.344 4.577-2.309.61-1.54.057-6.177-.305-8.476-1.837 1.427-5.416 4.428-6.026 5.968Zm13.246-10.62c-.711 1.796-.078 3.737 1.413 4.327 1.49.59 3.28-.39 3.992-2.186.558-1.408.177-5.598-.087-7.672-1.613 1.33-4.76 4.123-5.318 5.531Z"/></svg>