<svg xmlns="http://www.w3.org/2000/svg" width="78" height="67" fill="none"><path fill="#487C93" d="M21.551 51.003a.796.796 0 0 1 .417.504.771.771 0 0 1-.088.635l-.448.716a.84.84 0 0 1-.543.387.942.942 0 0 1-.682-.08l-1.863-.997v1.999a.774.774 0 0 1-.266.586.895.895 0 0 1-.63.247h-.896a.895.895 0 0 1-.63-.247.774.774 0 0 1-.266-.586v-1.999l-1.863.996a.942.942 0 0 1-.682.081.84.84 0 0 1-.543-.387l-.448-.716a.771.771 0 0 1-.088-.635.796.796 0 0 1 .417-.504L14.31 50l-1.862-1.003a.796.796 0 0 1-.417-.504.771.771 0 0 1 .088-.635l.448-.716a.84.84 0 0 1 .543-.387.942.942 0 0 1 .682.08l1.863.997v-1.999c0-.225.088-.42.266-.586a.895.895 0 0 1 .63-.247h.896c.243 0 .453.083.63.247.178.165.266.36.266.586v1.999l1.863-.996a.942.942 0 0 1 .682-.081.84.84 0 0 1 .543.387l.448.716c.122.2.15.411.088.635a.796.796 0 0 1-.417.504L19.69 50l1.862 1.003Zm10 11a.796.796 0 0 1 .417.504.771.771 0 0 1-.088.635l-.448.716a.84.84 0 0 1-.543.387.942.942 0 0 1-.682-.08l-1.863-.997v1.999a.774.774 0 0 1-.266.586.895.895 0 0 1-.63.247h-.896a.895.895 0 0 1-.63-.247.774.774 0 0 1-.266-.586v-1.999l-1.863.996a.942.942 0 0 1-.682.081.84.84 0 0 1-.543-.387l-.448-.716a.771.771 0 0 1-.088-.635.796.796 0 0 1 .417-.504L24.31 61l-1.862-1.003a.796.796 0 0 1-.417-.504.771.771 0 0 1 .088-.635l.448-.716a.84.84 0 0 1 .543-.387.942.942 0 0 1 .682.08l1.863.997v-1.999c0-.225.088-.42.266-.586a.895.895 0 0 1 .63-.247h.896c.243 0 .453.083.63.247.178.165.266.36.266.586v1.999l1.863-.996a.942.942 0 0 1 .682-.081.84.84 0 0 1 .543.387l.448.716c.122.2.15.411.088.635a.796.796 0 0 1-.417.504L29.69 61l1.862 1.003Zm13-11a.796.796 0 0 1 .417.504.771.771 0 0 1-.088.635l-.448.716a.84.84 0 0 1-.543.387.942.942 0 0 1-.682-.08l-1.863-.997v1.999a.774.774 0 0 1-.266.586.895.895 0 0 1-.63.247h-.896a.895.895 0 0 1-.63-.247.774.774 0 0 1-.266-.586v-1.999l-1.863.996a.942.942 0 0 1-.682.081.84.84 0 0 1-.543-.387l-.448-.716a.771.771 0 0 1-.088-.635.796.796 0 0 1 .417-.504L37.31 50l-1.862-1.003a.796.796 0 0 1-.417-.504.771.771 0 0 1 .088-.635l.448-.716a.84.84 0 0 1 .543-.387.942.942 0 0 1 .682.08l1.863.997v-1.999c0-.225.088-.42.266-.586a.895.895 0 0 1 .63-.247h.896c.243 0 .453.083.63.247.178.165.266.36.266.586v1.999l1.863-.996a.942.942 0 0 1 .682-.081.84.84 0 0 1 .543.387l.448.716c.121.2.15.411.088.635a.796.796 0 0 1-.417.504L42.69 50l1.862 1.003Zm10 11a.796.796 0 0 1 .417.504.771.771 0 0 1-.088.635l-.448.716a.84.84 0 0 1-.543.387.942.942 0 0 1-.682-.08l-1.863-.997v1.999a.774.774 0 0 1-.266.586.895.895 0 0 1-.63.247h-.896a.895.895 0 0 1-.63-.247.774.774 0 0 1-.266-.586v-1.999l-1.863.996a.942.942 0 0 1-.682.081.84.84 0 0 1-.543-.387l-.448-.716a.771.771 0 0 1-.088-.635.796.796 0 0 1 .417-.504L47.31 61l-1.862-1.003a.796.796 0 0 1-.417-.504.771.771 0 0 1 .088-.635l.448-.716a.84.84 0 0 1 .543-.387.942.942 0 0 1 .682.08l1.863.997v-1.999c0-.225.088-.42.266-.586a.895.895 0 0 1 .63-.247h.896c.243 0 .453.083.63.247.178.165.266.36.266.586v1.999l1.863-.996a.942.942 0 0 1 .682-.081.84.84 0 0 1 .543.387l.448.716c.121.2.15.411.088.635a.796.796 0 0 1-.417.504L52.69 61l1.862 1.003Zm12-11a.796.796 0 0 1 .417.504.771.771 0 0 1-.088.635l-.448.716a.84.84 0 0 1-.543.387.942.942 0 0 1-.682-.08l-1.863-.997v1.999a.774.774 0 0 1-.266.586.895.895 0 0 1-.63.247h-.896a.895.895 0 0 1-.63-.247.774.774 0 0 1-.266-.586v-1.999l-1.863.996a.942.942 0 0 1-.682.081.84.84 0 0 1-.543-.387l-.448-.716a.771.771 0 0 1-.088-.635.796.796 0 0 1 .417-.504L59.31 50l-1.862-1.003a.796.796 0 0 1-.417-.504.771.771 0 0 1 .088-.635l.448-.716a.84.84 0 0 1 .543-.387.942.942 0 0 1 .682.08l1.863.997v-1.999c0-.225.088-.42.266-.586a.895.895 0 0 1 .63-.247h.896c.243 0 .453.083.63.247.178.165.266.36.266.586v1.999l1.863-.996a.942.942 0 0 1 .682-.081.84.84 0 0 1 .543.387l.448.716c.121.2.15.411.088.635a.796.796 0 0 1-.417.504L64.69 50l1.862 1.003ZM73 28.64c0-3.878-1.826-7.457-5.011-9.819a1.951 1.951 0 0 1-.711-1.01C65.444 11.636 59.55 7.325 52.947 7.325a15.36 15.36 0 0 0-3.603.428 2.032 2.032 0 0 1-2.134-.788C44.128 2.604 39.048 0 33.622 0c-4.126 0-8.074 1.492-11.117 4.201-3.023 2.693-4.902 6.353-5.29 10.308a1.955 1.955 0 0 1-1.135 1.578 10.96 10.96 0 0 0-.594.297c-.168.09-.347.156-.534.197a12.874 12.874 0 0 0-7.115 4.288C5.981 23.09 5 25.776 5 28.64 5 35.456 10.724 41 17.76 41h42.48C67.274 41 73 35.455 73 28.64Z"/></svg>