<svg xmlns="http://www.w3.org/2000/svg" width="78" height="67" fill="none"><path fill="#487C93" d="M18.73 49.602a.478.478 0 0 1 .25.302.463.463 0 0 1-.052.381l-.269.43a.504.504 0 0 1-.325.232.565.565 0 0 1-.41-.049l-1.117-.597V51.5a.465.465 0 0 1-.16.352.537.537 0 0 1-.378.148h-.538a.537.537 0 0 1-.378-.148.465.465 0 0 1-.16-.352v-1.2l-1.117.598a.565.565 0 0 1-.41.05.504.504 0 0 1-.325-.233l-.27-.43a.463.463 0 0 1-.052-.38.478.478 0 0 1 .25-.303L14.387 49l-1.118-.602a.478.478 0 0 1-.25-.302.463.463 0 0 1 .053-.381l.269-.43a.504.504 0 0 1 .325-.232.565.565 0 0 1 .41.049l1.117.597V46.5c0-.135.054-.253.16-.352a.537.537 0 0 1 .378-.148h.538c.146 0 .272.05.378.148.106.1.16.217.16.352v1.2l1.117-.598a.565.565 0 0 1 .41-.05.504.504 0 0 1 .325.233l.27.43c.072.12.09.247.052.38a.478.478 0 0 1-.25.303L17.613 49l1.118.602Zm10 11a.478.478 0 0 1 .25.302.463.463 0 0 1-.052.381l-.269.43a.504.504 0 0 1-.325.232.565.565 0 0 1-.41-.049l-1.117-.597V62.5a.465.465 0 0 1-.16.352.537.537 0 0 1-.378.148h-.538a.537.537 0 0 1-.378-.148.465.465 0 0 1-.16-.352v-1.2l-1.117.598a.565.565 0 0 1-.41.05.504.504 0 0 1-.325-.233l-.27-.43a.463.463 0 0 1-.052-.38.478.478 0 0 1 .25-.303L24.387 60l-1.118-.602a.478.478 0 0 1-.25-.302.463.463 0 0 1 .053-.381l.269-.43a.504.504 0 0 1 .325-.232.565.565 0 0 1 .41.049l1.117.597V57.5c0-.135.054-.253.16-.352a.537.537 0 0 1 .378-.148h.538c.146 0 .272.05.378.148.106.1.16.217.16.352v1.2l1.117-.598a.565.565 0 0 1 .41-.05.504.504 0 0 1 .325.233l.27.43c.072.12.09.247.052.38a.478.478 0 0 1-.25.303L27.613 60l1.118.602Zm13-11a.478.478 0 0 1 .25.302.463.463 0 0 1-.052.381l-.269.43a.504.504 0 0 1-.325.232.565.565 0 0 1-.41-.049l-1.117-.597V51.5a.465.465 0 0 1-.16.352.537.537 0 0 1-.378.148h-.538a.537.537 0 0 1-.378-.148.465.465 0 0 1-.16-.352v-1.2l-1.117.598a.565.565 0 0 1-.41.05.504.504 0 0 1-.325-.233l-.27-.43a.463.463 0 0 1-.052-.38.478.478 0 0 1 .25-.303L37.387 49l-1.118-.602a.478.478 0 0 1-.25-.302.463.463 0 0 1 .053-.381l.269-.43a.504.504 0 0 1 .325-.232.565.565 0 0 1 .41.049l1.117.597V46.5c0-.135.054-.253.16-.352a.537.537 0 0 1 .378-.148h.538a.54.54 0 0 1 .378.148c.106.1.16.217.16.352v1.2l1.117-.598a.565.565 0 0 1 .41-.05.504.504 0 0 1 .325.233l.27.43c.072.12.09.247.052.38a.478.478 0 0 1-.25.303L40.613 49l1.118.602Zm10 11a.478.478 0 0 1 .25.302.463.463 0 0 1-.052.381l-.269.43a.504.504 0 0 1-.325.232.565.565 0 0 1-.41-.049l-1.117-.597V62.5a.465.465 0 0 1-.16.352.537.537 0 0 1-.378.148h-.538a.537.537 0 0 1-.378-.148.465.465 0 0 1-.16-.352v-1.2l-1.117.598a.565.565 0 0 1-.41.05.504.504 0 0 1-.325-.233l-.27-.43a.463.463 0 0 1-.052-.38.478.478 0 0 1 .25-.303L47.387 60l-1.118-.602a.478.478 0 0 1-.25-.302.463.463 0 0 1 .053-.381l.269-.43a.504.504 0 0 1 .325-.232.565.565 0 0 1 .41.049l1.117.597V57.5c0-.135.054-.253.16-.352a.537.537 0 0 1 .378-.148h.538a.54.54 0 0 1 .378.148c.106.1.16.217.16.352v1.2l1.117-.598a.565.565 0 0 1 .41-.05.504.504 0 0 1 .325.233l.27.43c.072.12.09.247.052.38a.478.478 0 0 1-.25.303L50.613 60l1.118.602Zm12-11a.478.478 0 0 1 .25.302.463.463 0 0 1-.052.381l-.269.43a.504.504 0 0 1-.325.232.565.565 0 0 1-.41-.049l-1.117-.597V51.5a.465.465 0 0 1-.16.352.537.537 0 0 1-.378.148h-.538a.537.537 0 0 1-.378-.148.465.465 0 0 1-.16-.352v-1.2l-1.117.598a.565.565 0 0 1-.41.05.504.504 0 0 1-.325-.233l-.27-.43a.463.463 0 0 1-.052-.38.478.478 0 0 1 .25-.303L59.387 49l-1.118-.602a.478.478 0 0 1-.25-.302.463.463 0 0 1 .053-.381l.269-.43a.504.504 0 0 1 .325-.232.565.565 0 0 1 .41.049l1.117.597V46.5c0-.135.054-.253.16-.352a.537.537 0 0 1 .378-.148h.538a.54.54 0 0 1 .378.148c.106.1.16.217.16.352v1.2l1.117-.598a.565.565 0 0 1 .41-.05.504.504 0 0 1 .325.233l.27.43c.072.12.09.247.052.38a.478.478 0 0 1-.25.303L62.613 49l1.118.602ZM75 28.64c0-3.878-1.96-7.457-5.38-9.819a1.96 1.96 0 0 1-.763-1.01c-1.968-6.174-8.295-10.485-15.385-10.485a17.62 17.62 0 0 0-3.867.428c-.87.195-1.783-.118-2.291-.788C44.004 2.604 38.552 0 32.727 0c-4.43 0-8.668 1.492-11.934 4.201-3.247 2.693-5.264 6.353-5.68 10.308-.072.683-.534 1.283-1.218 1.578-.214.092-.428.192-.638.297a2.3 2.3 0 0 1-.573.197c-2.986.605-5.699 2.128-7.638 4.288C3.053 23.09 2 25.776 2 28.64 2 35.456 8.145 41 15.699 41H61.3C68.854 41 75 35.455 75 28.64Z"/></svg>