<svg xmlns="http://www.w3.org/2000/svg" width="88" height="67" fill="none"><path fill="#487C93" d="M82 32.037c0-4.067-2.041-7.82-5.6-10.298a2.053 2.053 0 0 1-.796-1.06C73.555 14.205 66.97 9.684 59.588 9.684c-1.36 0-2.715.15-4.027.448-.906.205-1.856-.124-2.385-.827C49.73 4.731 44.054 2 37.99 2c-4.612 0-9.024 1.565-12.425 4.406-3.38 2.824-5.48 6.663-5.913 10.81-.075.717-.556 1.346-1.269 1.655a12.96 12.96 0 0 0-.663.312 2.383 2.383 0 0 1-.597.207c-3.109.634-5.933 2.231-7.952 4.497C7.096 26.216 6 29.034 6 32.037 6 39.185 12.398 45 20.262 45h47.476C75.602 45 82 39.185 82 32.037Z"/><path fill="#C2C2C2" d="M54 61.054C54 64.333 56.467 67 59.5 67s5.5-2.667 5.5-5.946c0-2.57-3.59-8.945-5.5-12.054-1.91 3.11-5.5 9.484-5.5 12.054Zm-13-4.687C41 58.37 42.57 60 44.5 60s3.5-1.63 3.5-3.633c0-1.572-2.285-5.467-3.5-7.367-1.215 1.9-3.5 5.795-3.5 7.367Z"/></svg>