<svg xmlns="http://www.w3.org/2000/svg" width="78" height="67" fill="none"><path fill="#487C93" d="M75 28.64c0-3.878-1.96-7.457-5.38-9.819a1.96 1.96 0 0 1-.763-1.01c-1.968-6.174-8.295-10.485-15.385-10.485a17.62 17.62 0 0 0-3.867.428c-.87.195-1.783-.118-2.291-.788C44.004 2.604 38.552 0 32.727 0c-4.43 0-8.668 1.492-11.934 4.201-3.247 2.693-5.264 6.353-5.68 10.308-.072.683-.534 1.283-1.218 1.578-.214.092-.428.192-.638.297a2.3 2.3 0 0 1-.573.197c-2.986.605-5.699 2.128-7.638 4.288C3.053 23.09 2 25.776 2 28.64 2 35.456 8.145 41 15.699 41H61.3C68.854 41 75 35.455 75 28.64Z"/><path fill="#487C93" d="M61 47.5c0-.828-.76-1.5-1.699-1.5H14.7c-.94 0-1.7.672-1.7 1.5s.76 1.5 1.698 1.5h44.603C60.24 49 61 48.328 61 47.5ZM56.337 63H12.663c-.918 0-1.663.672-1.663 1.5s.745 1.5 1.663 1.5h43.674c.918 0 1.663-.672 1.663-1.5s-.745-1.5-1.663-1.5ZM21.72 55c-.95 0-1.72.672-1.72 1.5s.77 1.5 1.72 1.5h16.56c.95 0 1.72-.672 1.72-1.5s-.77-1.5-1.72-1.5H21.72Zm42.56 0H47.72c-.95 0-1.72.672-1.72 1.5s.77 1.5 1.72 1.5h16.56c.95 0 1.72-.672 1.72-1.5 0-.829-.77-1.5-1.72-1.5Z"/></svg>