<svg xmlns="http://www.w3.org/2000/svg" width="88" height="67" fill="none"><path fill="#487C93" d="M82 30.037c0-4.067-2.041-7.82-5.6-10.298a2.053 2.053 0 0 1-.796-1.06C73.555 12.205 66.97 7.684 59.588 7.684c-1.36 0-2.715.15-4.027.448-.906.205-1.856-.124-2.385-.827C49.73 2.731 44.054 0 37.99 0c-4.612 0-9.024 1.565-12.425 4.406-3.38 2.824-5.48 6.663-5.913 10.81-.075.717-.556 1.346-1.269 1.655a12.96 12.96 0 0 0-.663.312 2.383 2.383 0 0 1-.597.207c-3.109.634-5.933 2.231-7.952 4.497C7.096 24.216 6 27.034 6 30.037 6 37.185 12.398 43 20.262 43h47.476C75.602 43 82 37.185 82 30.037ZM19.885 51.602c-.711 1.796-.078 3.737 1.412 4.327 1.49.59 3.282-.39 3.993-2.186.558-1.408.177-5.598-.087-7.672-1.613 1.33-4.76 4.123-5.318 5.531Zm41.405-1c-.711 1.796-.078 3.737 1.413 4.327 1.49.59 3.28-.39 3.992-2.186.558-1.408.177-5.598-.087-7.672-1.613 1.33-4.76 4.123-5.318 5.531Zm-12 11c-.711 1.796-.078 3.737 1.413 4.327 1.49.59 3.28-.39 3.992-2.186.558-1.408.177-5.598-.087-7.672-1.613 1.33-4.76 4.123-5.318 5.531Zm-21 0c-.711 1.796-.078 3.737 1.413 4.327 1.49.59 3.28-.39 3.992-2.186.558-1.408.177-5.598-.087-7.672-1.613 1.33-4.76 4.123-5.318 5.531Zm12-11c-.711 1.796-.078 3.737 1.413 4.327 1.49.59 3.28-.39 3.992-2.186.558-1.408.177-5.598-.087-7.672-1.613 1.33-4.76 4.123-5.318 5.531Z"/></svg>