<svg xmlns="http://www.w3.org/2000/svg" width="85" height="67" fill="none"><path fill="#487C93" d="M18.261 57h47.477C73.602 57 80 51.185 80 44.037c0-4.067-2.041-7.82-5.6-10.298a2.054 2.054 0 0 1-.796-1.06c-2.049-6.474-8.635-10.995-16.017-10.995-1.359 0-2.714.15-4.026.448-.906.205-1.856-.124-2.385-.827C47.73 16.731 42.054 14 35.989 14c-4.611 0-9.024 1.565-12.424 4.407-3.38 2.824-5.48 6.663-5.914 10.81-.075.717-.556 1.345-1.268 1.655a12.44 12.44 0 0 0-.663.311 2.384 2.384 0 0 1-.597.207c-3.109.634-5.933 2.231-7.952 4.498C5.096 38.216 4 41.034 4 44.038 3.999 51.185 10.397 57 18.261 57Z"/></svg>