<svg xmlns="http://www.w3.org/2000/svg" width="77" height="67" fill="none"><path fill="#487C93" d="M75 36.75c0-3.216-1.665-6.183-4.569-8.142a1.63 1.63 0 0 1-.648-.838c-1.672-5.12-7.046-8.694-13.067-8.694-1.108 0-2.212.119-3.284.354a2.093 2.093 0 0 1-1.098-.06 1.76 1.76 0 0 1-.848-.594C48.674 15.159 44.044 13 39.096 13c-3.76 0-7.36 1.237-10.135 3.484-2.757 2.233-4.47 5.269-4.824 8.547-.027.275-.136.54-.317.769a1.837 1.837 0 0 1-.718.54c-.181.076-.362.16-.542.246a1.92 1.92 0 0 1-.486.164c-2.536.502-4.84 1.765-6.486 3.556C13.894 32.148 13 34.376 13 36.75 13 42.402 18.22 47 24.635 47h38.73C69.781 47 75 42.402 75 36.75Z"/><path fill="#E6C705" d="M13.82 21.085c0 2.14.78 4.159 2.172 5.715a14.103 14.103 0 0 1 4.832-2.397 17.542 17.542 0 0 1 5.83-10.567 8.266 8.266 0 0 0-4.426-1.274c-4.637 0-8.408 3.824-8.408 8.523Zm8.885-12.71c1.091 0 1.975-.779 1.975-1.74V1.74c0-.96-.884-1.74-1.976-1.74-1.09 0-1.974.779-1.974 1.74v4.896c0 .96.883 1.739 1.974 1.739Zm-9.709.825c.18.26.438.475.746.624.309.149.658.227 1.013.226.355 0 .704-.079 1.012-.228.97-.469 1.303-1.507.743-2.32l-2.853-4.14c-.274-.39-.717-.675-1.235-.792a2.367 2.367 0 0 0-1.535.17c-.97.47-1.303 1.508-.743 2.321L12.997 9.2Zm-9.144 4.06 4.337 2.42c.28.158.586.232.888.232.615 0 1.213-.31 1.543-.861.492-.823.2-1.876-.651-2.35l-4.337-2.42c-.851-.477-1.94-.194-2.432.629-.491.822-.2 1.875.652 2.35Zm-2.006 9.352h5.193c1.02 0 1.846-.75 1.846-1.675 0-.926-.827-1.675-1.846-1.675H1.846c-1.02 0-1.846.75-1.846 1.674 0 .926.826 1.675 1.846 1.675Zm8.774 5.048c-.491-.823-1.58-1.106-2.431-.63l-4.337 2.42c-.851.475-1.143 1.528-.652 2.35.33.553.928.862 1.543.862.302 0 .608-.075.889-.232l4.337-2.42c.85-.475 1.143-1.528.651-2.35ZM29.497 9.822c.274.154.573.228.869.228.6 0 1.184-.305 1.507-.85l2.445-4.139c.48-.812.195-1.85-.636-2.32a1.76 1.76 0 0 0-2.376.622L28.861 7.5a1.68 1.68 0 0 0 .637 2.321h-.001Z"/><path fill="#487C93" d="M26.686 53.202c.15.079.247.197.291.353a.54.54 0 0 1-.06.444l-.315.502a.588.588 0 0 1-.38.27.66.66 0 0 1-.477-.056l-1.304-.697v1.399a.542.542 0 0 1-.186.41.626.626 0 0 1-.441.173h-.628a.626.626 0 0 1-.44-.173.542.542 0 0 1-.187-.41v-1.4l-1.304.698a.66.66 0 0 1-.478.057.588.588 0 0 1-.38-.271l-.313-.502a.54.54 0 0 1-.061-.444.557.557 0 0 1 .291-.353l1.304-.702-1.304-.702a.557.557 0 0 1-.291-.353.54.54 0 0 1 .06-.444l.315-.502a.588.588 0 0 1 .38-.27.66.66 0 0 1 .477.056l1.304.697v-1.399c0-.158.062-.294.186-.41a.626.626 0 0 1 .441-.173h.628c.17 0 .317.058.44.173a.542.542 0 0 1 .187.41v1.4l1.304-.698a.66.66 0 0 1 .478-.057.588.588 0 0 1 .38.271l.313.502a.54.54 0 0 1 .061.444.557.557 0 0 1-.291.353l-1.304.702 1.304.702Zm10 10c.15.079.247.197.291.353a.54.54 0 0 1-.06.444l-.315.502a.588.588 0 0 1-.38.27.66.66 0 0 1-.477-.056l-1.304-.697v1.399a.542.542 0 0 1-.186.41.626.626 0 0 1-.441.173h-.628a.626.626 0 0 1-.44-.173.542.542 0 0 1-.187-.41v-1.4l-1.304.698a.66.66 0 0 1-.478.057.588.588 0 0 1-.38-.271l-.313-.502a.54.54 0 0 1-.061-.444.557.557 0 0 1 .291-.353l1.304-.702-1.304-.702a.557.557 0 0 1-.291-.353.54.54 0 0 1 .06-.444l.315-.502a.588.588 0 0 1 .38-.27.66.66 0 0 1 .477.056l1.304.697v-1.399c0-.158.062-.294.186-.41a.626.626 0 0 1 .441-.173h.628c.17 0 .317.058.44.173a.542.542 0 0 1 .187.41v1.4l1.304-.698a.66.66 0 0 1 .478-.057.588.588 0 0 1 .38.271l.313.502a.54.54 0 0 1 .061.444.557.557 0 0 1-.291.353l-1.304.702 1.304.702Zm10-10c.15.079.247.197.291.353a.54.54 0 0 1-.06.444l-.315.502a.588.588 0 0 1-.38.27.66.66 0 0 1-.477-.056l-1.304-.697v1.399a.542.542 0 0 1-.186.41.626.626 0 0 1-.441.173h-.628a.626.626 0 0 1-.44-.173.542.542 0 0 1-.187-.41v-1.4l-1.304.698a.66.66 0 0 1-.478.057.588.588 0 0 1-.38-.271l-.313-.502a.54.54 0 0 1-.061-.444.557.557 0 0 1 .291-.353l1.304-.702-1.304-.702a.557.557 0 0 1-.291-.353.54.54 0 0 1 .06-.444l.315-.502a.588.588 0 0 1 .38-.27.66.66 0 0 1 .477.056l1.304.697v-1.399c0-.158.062-.294.186-.41a.626.626 0 0 1 .441-.173h.628c.17 0 .317.058.44.173a.542.542 0 0 1 .187.41v1.4l1.304-.698a.66.66 0 0 1 .478-.057.588.588 0 0 1 .38.271l.313.502a.54.54 0 0 1 .061.444.557.557 0 0 1-.291.353l-1.304.702 1.304.702Zm9 10c.15.079.247.197.291.353a.54.54 0 0 1-.06.444l-.315.502a.588.588 0 0 1-.38.27.66.66 0 0 1-.477-.056l-1.304-.697v1.399a.542.542 0 0 1-.186.41.626.626 0 0 1-.441.173h-.628a.626.626 0 0 1-.44-.173.542.542 0 0 1-.187-.41v-1.4l-1.304.698a.66.66 0 0 1-.478.057.588.588 0 0 1-.38-.271l-.313-.502a.54.54 0 0 1-.061-.444.557.557 0 0 1 .291-.353l1.304-.702-1.304-.702a.557.557 0 0 1-.291-.353.54.54 0 0 1 .06-.444l.315-.502a.588.588 0 0 1 .38-.27.66.66 0 0 1 .477.056l1.304.697v-1.399c0-.158.062-.294.186-.41a.626.626 0 0 1 .441-.173h.628c.17 0 .317.058.44.173a.542.542 0 0 1 .187.41v1.4l1.304-.698a.66.66 0 0 1 .478-.057.588.588 0 0 1 .38.271l.313.502a.54.54 0 0 1 .061.444.557.557 0 0 1-.291.353l-1.304.702 1.304.702Zm10-10c.15.079.247.197.291.353a.54.54 0 0 1-.06.444l-.315.502a.588.588 0 0 1-.38.27.66.66 0 0 1-.477-.056l-1.304-.697v1.399a.542.542 0 0 1-.186.41.626.626 0 0 1-.441.173h-.628a.626.626 0 0 1-.44-.173.542.542 0 0 1-.187-.41v-1.4l-1.304.698a.66.66 0 0 1-.478.057.588.588 0 0 1-.38-.271l-.313-.502a.54.54 0 0 1-.061-.444.557.557 0 0 1 .291-.353l1.304-.702-1.304-.702a.557.557 0 0 1-.291-.353.54.54 0 0 1 .06-.444l.315-.502a.588.588 0 0 1 .38-.27.66.66 0 0 1 .477.056l1.304.697v-1.399c0-.158.062-.294.186-.41a.626.626 0 0 1 .441-.173h.628c.17 0 .317.058.44.173a.542.542 0 0 1 .187.41v1.4l1.304-.698a.66.66 0 0 1 .478-.057.588.588 0 0 1 .38.271l.313.502a.54.54 0 0 1 .061.444.557.557 0 0 1-.291.353l-1.304.702 1.304.702Z"/></svg>