<svg xmlns="http://www.w3.org/2000/svg" width="78" height="80" fill="none"><path fill="#487C93" d="M78 45.339c0-3.973-1.746-7.639-4.79-10.059a2.005 2.005 0 0 1-.68-1.035c-1.752-6.324-7.386-10.74-13.699-10.74a13.75 13.75 0 0 0-3.443.438 1.878 1.878 0 0 1-2.04-.808C50.4 18.667 45.546 16 40.359 16c-3.943 0-7.717 1.528-10.626 4.304-2.89 2.758-4.686 6.508-5.057 10.558a1.999 1.999 0 0 1-1.085 1.617c-.19.094-.38.197-.568.304-.16.093-.331.16-.51.202-2.659.62-5.074 2.18-6.8 4.393C13.937 39.653 13 42.405 13 45.338 13 52.32 18.472 58 25.198 58h40.604C72.528 58 78 52.32 78 45.339Z"/><path fill="#487C93" d="M62.308 68.682c-.126 0-.255-.019-.383-.057a1.293 1.293 0 0 1-.867-1.619l1.574-5.09a1.31 1.31 0 0 1 1.633-.859c.69.21 1.079.934.867 1.619l-1.574 5.09c-.172.557-.69.916-1.25.916Zm-10.782 11c-.148 0-.298-.019-.447-.057-.806-.21-1.259-.935-1.012-1.619l1.837-5.09c.247-.684 1.1-1.068 1.905-.859.806.21 1.259.934 1.012 1.618l-1.837 5.09c-.2.558-.805.917-1.458.917ZM34.81 72.057c.805.21 1.258.934 1.011 1.619l-1.837 5.09c-.201.557-.805.916-1.458.916-.148 0-.298-.019-.447-.057-.806-.21-1.259-.934-1.012-1.619l1.837-5.09c.247-.684 1.1-1.069 1.905-.859Zm8.934-3.375c-.169 0-.34-.019-.511-.057-.92-.21-1.438-.934-1.156-1.619l2.1-5.09c.281-.684 1.257-1.069 2.177-.859.92.21 1.438.934 1.156 1.619l-2.1 5.09c-.23.557-.92.916-1.666.916Zm-18.218-.698c-.148 0-.298-.017-.447-.052-.806-.191-1.259-.85-1.012-1.472l1.837-4.627c.247-.622 1.1-.972 1.905-.78.806.19 1.259.848 1.012 1.47l-1.837 4.627c-.2.508-.805.834-1.458.834Z"/><path fill="#E6C705" d="M14 25.176c0 2.555.79 4.966 2.2 6.824 1.46-1.313 3.123-2.292 4.894-2.862.614-4.67 2.537-8.953 5.485-12.173.138-.15.28-.298.421-.444-1.333-.99-2.873-1.521-4.483-1.521C17.82 15 14 19.565 14 25.176ZM23 10c1.105 0 2-.93 2-2.078V2.078C25 .93 24.105 0 23 0s-2 .93-2 2.078v5.845C21 9.07 21.895 10 23 10Zm-9.835.985A2.06 2.06 0 0 0 14.947 12a2.07 2.07 0 0 0 1.025-.272c.983-.56 1.32-1.8.752-2.77l-2.89-4.943a2.07 2.07 0 0 0-2.806-.743c-.983.56-1.32 1.8-.752 2.771l2.89 4.942Zm-9.263 4.849 4.393 2.89c.284.188.594.276.9.276.623 0 1.229-.369 1.563-1.028.498-.982.203-2.239-.66-2.806l-4.393-2.89c-.862-.568-1.965-.231-2.463.752-.498.982-.203 2.239.66 2.806ZM1.87 27h5.26C8.163 27 9 26.105 9 25s-.837-2-1.87-2H1.87C.837 23 0 23.895 0 25s.837 2 1.87 2Zm8.888 6.028c-.498-.983-1.6-1.32-2.463-.752l-4.393 2.89c-.862.567-1.158 1.824-.66 2.806.334.66.94 1.028 1.563 1.028.306 0 .616-.089.9-.276l4.393-2.89c.862-.567 1.158-1.824.66-2.806Zm19.122-21.3c.278.184.581.272.88.272.608 0 1.2-.364 1.527-1.015l2.477-4.942c.486-.97.197-2.21-.645-2.771-.843-.56-1.919-.228-2.406.743l-2.477 4.942c-.486.97-.197 2.21.645 2.771Z"/></svg>