<svg xmlns="http://www.w3.org/2000/svg" width="88" height="67" fill="none"><path fill="#487C93" d="M82 30.037c0-4.067-2.041-7.82-5.6-10.298a2.053 2.053 0 0 1-.796-1.06C73.555 12.205 66.97 7.684 59.588 7.684c-1.36 0-2.715.15-4.027.448-.906.205-1.856-.124-2.385-.827C49.73 2.731 44.054 0 37.99 0c-4.612 0-9.024 1.565-12.425 4.406-3.38 2.824-5.48 6.663-5.913 10.81-.075.717-.556 1.346-1.269 1.655a12.96 12.96 0 0 0-.663.312 2.383 2.383 0 0 1-.597.207c-3.109.634-5.933 2.231-7.952 4.497C7.096 24.216 6 27.034 6 30.037 6 37.185 12.398 43 20.262 43h47.476C75.602 43 82 37.185 82 30.037ZM21.885 51.602c-.711 1.796-.078 3.737 1.412 4.327 1.49.59 3.282-.39 3.993-2.186.558-1.408.177-5.598-.087-7.672-1.613 1.33-4.76 4.123-5.318 5.531Zm39.405-1c-.711 1.796-.078 3.737 1.413 4.327 1.49.59 3.28-.39 3.992-2.186.558-1.408.177-5.598-.087-7.672-1.613 1.33-4.76 4.123-5.318 5.531Zm-13.694 1.8a.717.717 0 0 1 .375.454.694.694 0 0 1-.079.572l-.403.644a.756.756 0 0 1-.488.349.848.848 0 0 1-.615-.073l-1.676-.897v1.799c0 .203-.08.379-.24.527a.805.805 0 0 1-.567.223h-.806a.805.805 0 0 1-.567-.223.697.697 0 0 1-.24-.527v-1.799l-1.676.897a.848.848 0 0 1-.614.073.756.756 0 0 1-.489-.349l-.403-.644a.694.694 0 0 1-.079-.572.717.717 0 0 1 .375-.454l1.676-.902-1.676-.902a.717.717 0 0 1-.375-.454.694.694 0 0 1 .079-.572l.403-.644a.756.756 0 0 1 .488-.349.848.848 0 0 1 .615.073l1.676.897V47.75c0-.203.08-.379.24-.527a.805.805 0 0 1 .567-.223h.806a.8.8 0 0 1 .567.223c.16.148.24.324.24.527v1.799l1.676-.897A.848.848 0 0 1 47 48.58c.217.053.38.169.489.349l.403.644c.11.18.136.37.079.572a.717.717 0 0 1-.375.454l-1.676.902 1.676.902Zm11 10a.717.717 0 0 1 .375.454.694.694 0 0 1-.079.572l-.403.644a.756.756 0 0 1-.488.349.848.848 0 0 1-.615-.073l-1.676-.897v1.799c0 .203-.08.379-.24.527a.805.805 0 0 1-.567.223h-.806a.805.805 0 0 1-.567-.223.697.697 0 0 1-.24-.527v-1.799l-1.676.897a.848.848 0 0 1-.614.073.756.756 0 0 1-.489-.349l-.403-.644a.694.694 0 0 1-.079-.572.717.717 0 0 1 .375-.454l1.676-.902-1.676-.902a.717.717 0 0 1-.375-.454.694.694 0 0 1 .079-.572l.403-.644a.756.756 0 0 1 .488-.349.848.848 0 0 1 .615.073l1.676.897V57.75c0-.203.08-.379.24-.527a.805.805 0 0 1 .567-.223h.806a.8.8 0 0 1 .567.223c.16.148.24.324.24.527v1.799l1.676-.897A.848.848 0 0 1 58 58.58c.217.053.38.169.489.349l.403.644c.11.18.136.37.079.572a.717.717 0 0 1-.375.454l-1.676.902 1.676.902Zm-21 0a.717.717 0 0 1 .375.454.694.694 0 0 1-.079.572l-.403.644a.756.756 0 0 1-.488.349.848.848 0 0 1-.615-.073l-1.676-.897v1.799c0 .203-.08.379-.24.527a.805.805 0 0 1-.567.223h-.806a.805.805 0 0 1-.567-.223.697.697 0 0 1-.24-.527v-1.799l-1.676.897a.848.848 0 0 1-.614.073.756.756 0 0 1-.489-.349l-.403-.644a.694.694 0 0 1-.079-.572.717.717 0 0 1 .375-.454l1.676-.902-1.676-.902a.717.717 0 0 1-.375-.454.694.694 0 0 1 .079-.572l.403-.644a.756.756 0 0 1 .489-.349.848.848 0 0 1 .614.073l1.676.897V57.75c0-.203.08-.379.24-.527a.805.805 0 0 1 .567-.223h.806a.8.8 0 0 1 .567.223c.16.148.24.324.24.527v1.799l1.676-.897A.848.848 0 0 1 37 58.58c.217.053.38.169.489.349l.403.644c.11.18.136.37.079.572a.717.717 0 0 1-.375.454l-1.676.902 1.676.902Z"/></svg>