<svg xmlns="http://www.w3.org/2000/svg" width="84" height="67" fill="none"><path fill="#6CA4BC" d="M33.233 42.376c0-8.667 5.99-15.719 13.353-15.719 1.59 0 3.132.321 4.6.957 1.52-2.038 3.496-3.509 5.68-4.262-1.946-5.145-6.016-8.559-10.507-8.559a9.15 9.15 0 0 0-2.829.451c-.68.22-1.395-.133-1.793-.89C39.316 9.75 35.325 7 31.061 7c-3.242 0-6.344 1.575-8.735 4.436-2.375 2.843-3.852 6.708-4.157 10.883-.056.772-.418 1.448-.953 1.781a8.076 8.076 0 0 0-.465.313c-.14.102-.291.176-.448.222-2.181.637-4.162 2.242-5.578 4.518-1.456 2.339-2.225 5.17-2.225 8.186 0 7.18 4.488 13.021 10.005 13.021h12.012c.331-2.68 1.267-5.201 2.729-7.311-.009-.225-.013-.45-.013-.673Z"/><path fill="#487C93" d="M70.563 41.53c-.929-.44-1.41-1.781-1.075-2.998.276-.999.416-2.04.416-3.095 0-4.446-2.476-8.25-5.953-9.75A8.271 8.271 0 0 0 60.66 25c-.607 0-1.204.07-1.788.2-2.387.531-4.516 2.112-5.903 4.454-.5.844-1.372 1.139-2.122.716a9.489 9.489 0 0 0-4.708-1.248c-5.848 0-10.607 5.39-10.607 12.015 0 .426.02.86.062 1.293.07.733-.13 1.465-.536 1.976-1.183 1.489-1.983 3.288-2.341 5.214a12.682 12.682 0 0 0 .006 4.685c.964 5.088 4.968 8.915 9.75 8.915h24.25c5.499 0 9.972-5.06 9.972-11.28 0-4.56-2.407-8.645-6.131-10.41Z"/><path fill="#6B838E" d="M81 7.88c0 .136-.05.27-.145.393a1.127 1.127 0 0 1-.405.31l-1.493.717c-1.416.68-3.042 1.157-4.77 1.4a19.207 19.207 0 0 1-5.248.008l-9.455-1.296a14.938 14.938 0 0 0-4.082.007c-1.344.189-2.61.56-3.71 1.089l-1.492.716c-.144.07-.309.12-.484.149a2.137 2.137 0 0 1-.535.018 1.932 1.932 0 0 1-.506-.114 1.353 1.353 0 0 1-.4-.229.81.81 0 0 1-.232-.31.575.575 0 0 1-.03-.342.708.708 0 0 1 .179-.324c.092-.1.214-.187.358-.256l1.493-.717c1.416-.68 3.042-1.157 4.77-1.4a19.206 19.206 0 0 1 5.247-.008l9.455 1.297c1.345.184 2.737.182 4.081-.007 1.345-.189 2.61-.56 3.71-1.089l1.494-.716a2.06 2.06 0 0 1 1.44-.083c.228.073.42.185.554.324a.668.668 0 0 1 .206.462Zm0 8.8c0 .136-.05.27-.145.393a1.126 1.126 0 0 1-.405.31l-1.493.717c-1.416.68-3.042 1.157-4.77 1.4a19.207 19.207 0 0 1-5.248.008l-9.455-1.296a14.935 14.935 0 0 0-4.082.007c-1.344.189-2.61.56-3.71 1.089l-1.492.716c-.144.07-.309.12-.484.148a2.137 2.137 0 0 1-.535.02 1.932 1.932 0 0 1-.506-.115 1.353 1.353 0 0 1-.4-.229.808.808 0 0 1-.232-.31.575.575 0 0 1-.03-.343.708.708 0 0 1 .179-.323c.092-.1.214-.187.358-.256l1.493-.716c1.416-.68 3.042-1.157 4.77-1.4a19.202 19.202 0 0 1 5.247-.01l9.455 1.298c1.345.184 2.737.182 4.081-.007 1.345-.189 2.61-.56 3.71-1.089l1.494-.716a2.06 2.06 0 0 1 1.44-.083c.228.073.42.185.554.324a.668.668 0 0 1 .206.462Zm0 8.8c0 .136-.05.27-.145.393a1.127 1.127 0 0 1-.405.311l-1.493.716c-1.416.68-3.042 1.157-4.77 1.4a19.207 19.207 0 0 1-5.248.008l-9.455-1.296a14.938 14.938 0 0 0-4.081.007c-1.344.189-2.609.56-3.71 1.089l-1.493.716c-.144.07-.309.12-.484.148a2.137 2.137 0 0 1-.535.02c-.361-.034-.687-.157-.906-.344-.219-.187-.313-.421-.261-.652.051-.231.244-.44.536-.58l1.493-.717c1.416-.68 3.042-1.157 4.77-1.4a19.209 19.209 0 0 1 5.247-.008l9.455 1.297c1.345.184 2.737.182 4.081-.007 1.345-.189 2.61-.56 3.71-1.089l1.494-.716a2.06 2.06 0 0 1 1.44-.083c.228.073.42.185.554.324a.668.668 0 0 1 .206.462Z"/><path fill="#738B96" d="M4.53 43.588a.794.794 0 0 0-.095-.371.994.994 0 0 0-.267-.315 1.3 1.3 0 0 0-.401-.21 1.535 1.535 0 0 0-.946 0 1.3 1.3 0 0 0-.4.21.994.994 0 0 0-.268.315.794.794 0 0 0-.094.371c0 .258.13.505.362.687.231.182.546.284.873.284.328 0 .642-.102.874-.284.231-.182.361-.43.361-.687Zm2.058 0c0 .687-.347 1.345-.965 1.83-.617.486-1.455.758-2.329.758-.874 0-1.711-.272-2.33-.758C.348 44.933 0 44.275 0 43.588c0-.686.347-1.345.965-1.83.618-.485 1.455-.758 2.33-.758.873 0 1.71.273 2.328.758.618.485.965 1.144.965 1.83Zm6.592-.647c-1.332 0-2.622.363-3.652 1.027-1.03.663-1.736 1.586-1.998 2.612l-.094.376a.811.811 0 0 0 .2.712c.183.208.46.352.775.401.315.05.642.001.912-.136.27-.136.462-.35.535-.596l.097-.376c.162-.628.615-1.186 1.27-1.566.657-.38 1.469-.556 2.28-.492.811.063 1.564.36 2.111.835.548.474.853 1.09.855 1.731 0 .34-.085.677-.25.991-.166.314-.409.6-.715.84s-.669.431-1.069.562c-.4.13-.828.197-1.26.197H2.059c-.328 0-.642.102-.874.284-.231.182-.361.429-.361.686 0 .258.13.505.361.687.232.182.546.284.874.284h11.117c1.505-.028 2.937-.517 3.989-1.363s1.641-1.982 1.642-3.165c0-1.183-.588-2.32-1.64-3.166-1.051-.846-2.482-1.336-3.987-1.365Zm9.961 6.47a4.886 4.886 0 0 0-2.12.475c-.637.309-1.152.752-1.487 1.278l-.05.078a.831.831 0 0 0-.148.37.784.784 0 0 0 .048.388c.05.125.13.24.238.34.108.1.24.182.39.241a1.547 1.547 0 0 0 .968.046c.157-.044.3-.112.423-.201a1.04 1.04 0 0 0 .289-.316l.05-.078c.159-.247.418-.445.737-.562a1.958 1.958 0 0 1 1.021-.083c.343.064.648.216.867.433.219.216.338.484.339.761v.066c0 .343-.174.672-.482.915a1.9 1.9 0 0 1-1.165.38h-21c-.328 0-.642.101-.874.283-.231.182-.361.43-.361.687 0 .257.13.504.361.686.232.182.546.284.874.284h15.853c.382 0 .748.12 1.018.333.27.213.421.501.42.802 0 .3-.153.588-.423.8-.271.212-.638.33-1.02.33-.239 0-.474-.045-.684-.133a1.388 1.388 0 0 1-.523-.372l-.027-.03a1.297 1.297 0 0 0-.786-.405c-.32-.048-.65.005-.92.147s-.458.363-.523.613a.804.804 0 0 0 .177.725l.026.03c.359.42.844.765 1.412 1.004a4.796 4.796 0 0 0 1.848.362c.638 0 1.267-.123 1.831-.357a3.758 3.758 0 0 0 1.406-.989c.36-.414.584-.892.655-1.39a2.477 2.477 0 0 0-.249-1.47h1.509c1.092 0 2.14-.34 2.911-.947.773-.607 1.207-1.43 1.207-2.288v-.065c0-.84-.426-1.647-1.182-2.242-.757-.594-1.784-.928-2.854-.928ZM9.882 61.383c-.327 0-.641-.102-.873-.284-.232-.182-.362-.429-.362-.686 0-.258.13-.505.362-.687.232-.182.546-.284.873-.284.328 0 .642.102.874.284.232.182.362.43.362.687 0 .257-.13.504-.362.686a1.424 1.424 0 0 1-.874.284Zm0 1.618c.874 0 1.712-.273 2.33-.758.617-.485.965-1.144.965-1.83 0-.687-.348-1.345-.965-1.83-.618-.486-1.456-.758-2.33-.758-.873 0-1.711.272-2.329.758-.618.485-.965 1.143-.965 1.83 0 .686.347 1.345.965 1.83.618.485 1.456.758 2.33.758Zm16.06-18.118c0-.257-.131-.504-.363-.686a1.424 1.424 0 0 0-.873-.284c-.328 0-.642.102-.874.284-.231.182-.361.429-.361.686 0 .258.13.505.361.687.232.182.546.284.874.284.328 0 .642-.102.873-.284.232-.182.362-.43.362-.687Zm2.058 0c0 .687-.347 1.345-.965 1.83-.618.486-1.456.759-2.33.759-.873 0-1.71-.273-2.328-.758-.618-.486-.965-1.144-.965-1.83 0-.687.347-1.345.965-1.83.617-.486 1.455-.759 2.329-.759.873 0 1.711.273 2.33.758.617.486.964 1.144.964 1.83Z"/></svg>