<svg xmlns="http://www.w3.org/2000/svg" width="78" height="67" fill="none"><path fill="#487C93" d="M72 40.942c0-3.784-1.8-7.275-4.937-9.58a1.905 1.905 0 0 1-.701-.986c-1.807-6.022-7.613-10.228-14.12-10.228-1.199 0-2.393.14-3.55.417a2.012 2.012 0 0 1-2.103-.77C43.552 15.54 38.547 13 33.201 13c-4.065 0-7.955 1.456-10.953 4.099-2.98 2.627-4.83 6.198-5.213 10.056a1.908 1.908 0 0 1-1.118 1.54c-.196.09-.393.187-.585.29a2.024 2.024 0 0 1-.526.191c-2.74.59-5.23 2.076-7.01 4.184C5.966 35.526 5 38.148 5 40.942 5 47.59 10.64 53 17.573 53h41.854C66.36 53 72 47.59 72 40.942Z"/><path fill="#8FA4AE" d="M77 11.64c0 .099-.05.197-.145.286a1.156 1.156 0 0 1-.405.225l-1.493.522c-1.416.494-3.042.841-4.77 1.018a26.346 26.346 0 0 1-5.248.006l-9.455-.943a20.491 20.491 0 0 0-4.082.005c-1.344.138-2.61.408-3.71.792l-1.492.521c-.144.05-.309.087-.484.108-.175.02-.357.026-.535.014a2.561 2.561 0 0 1-.506-.083 1.539 1.539 0 0 1-.4-.167.645.645 0 0 1-.232-.225.313.313 0 0 1-.03-.25.497.497 0 0 1 .179-.235 1.25 1.25 0 0 1 .358-.186l1.493-.522c1.416-.494 3.042-.84 4.77-1.017a26.345 26.345 0 0 1 5.247-.007l9.455.944c1.345.134 2.737.132 4.081-.005 1.345-.138 2.61-.408 3.71-.792l1.494-.521a2.791 2.791 0 0 1 1.44-.06c.228.053.42.134.554.235.135.101.206.218.206.336Zm0 6.4c0 .099-.05.197-.145.286a1.156 1.156 0 0 1-.405.225l-1.493.522c-1.416.494-3.042.841-4.77 1.018a26.346 26.346 0 0 1-5.248.006l-9.455-.943a20.491 20.491 0 0 0-4.082.005c-1.344.138-2.61.408-3.71.792l-1.492.521c-.144.05-.309.087-.484.108-.175.02-.357.026-.535.014a2.561 2.561 0 0 1-.506-.083 1.539 1.539 0 0 1-.4-.167.645.645 0 0 1-.232-.225.313.313 0 0 1-.03-.25.497.497 0 0 1 .179-.235 1.25 1.25 0 0 1 .358-.186l1.493-.521c1.416-.494 3.042-.841 4.77-1.018a26.347 26.347 0 0 1 5.247-.007l9.455.944c1.345.134 2.737.132 4.081-.005 1.345-.138 2.61-.408 3.71-.792l1.494-.521a2.791 2.791 0 0 1 1.44-.06c.228.052.42.134.554.235.135.101.206.218.206.336Zm0 6.4c0 .099-.05.197-.145.286a1.153 1.153 0 0 1-.405.226l-1.493.521c-1.416.494-3.042.841-4.77 1.018a26.346 26.346 0 0 1-5.248.006l-9.455-.943a20.5 20.5 0 0 0-4.081.005c-1.344.138-2.609.408-3.71.792l-1.493.521c-.144.05-.309.087-.484.108-.175.02-.357.026-.535.014-.361-.024-.687-.114-.906-.25-.219-.136-.313-.306-.261-.474.051-.168.244-.32.536-.422l1.493-.522c1.416-.494 3.042-.84 4.77-1.017a26.345 26.345 0 0 1 5.247-.007l9.455.944c1.345.134 2.737.132 4.081-.005 1.345-.138 2.61-.408 3.71-.792l1.494-.521a2.791 2.791 0 0 1 1.44-.06c.228.052.42.134.554.235.135.101.206.218.206.336ZM33 40.68c0 .105-.05.209-.145.303a1.138 1.138 0 0 1-.405.24l-1.493.555c-1.416.525-3.043.893-4.77 1.081-1.729.188-3.518.19-5.248.006l-9.455-1.001a19.297 19.297 0 0 0-4.082.005c-1.344.146-2.61.433-3.71.842l-1.492.553a2.191 2.191 0 0 1-.484.115 2.75 2.75 0 0 1-.535.014 2.427 2.427 0 0 1-.507-.088 1.492 1.492 0 0 1-.399-.177.666.666 0 0 1-.232-.24.35.35 0 0 1-.03-.264.526.526 0 0 1 .179-.25c.092-.077.214-.144.358-.198l1.493-.554c1.416-.525 3.042-.894 4.77-1.081a24.806 24.806 0 0 1 5.247-.007l9.455 1.002a19.33 19.33 0 0 0 4.081-.005c1.345-.146 2.61-.433 3.71-.841l1.494-.554a2.632 2.632 0 0 1 1.44-.064c.228.056.42.143.554.25.135.107.206.231.206.357Zm0 6.8c0 .105-.05.209-.145.303a1.138 1.138 0 0 1-.405.24l-1.493.554c-1.416.526-3.043.894-4.77 1.082-1.729.188-3.518.19-5.248.007l-9.455-1.002a19.297 19.297 0 0 0-4.082.005c-1.344.146-2.61.433-3.71.842l-1.492.553a2.191 2.191 0 0 1-.484.115 2.75 2.75 0 0 1-.535.014 2.427 2.427 0 0 1-.507-.088 1.492 1.492 0 0 1-.399-.177.666.666 0 0 1-.232-.24.35.35 0 0 1-.03-.264.526.526 0 0 1 .179-.25c.092-.077.214-.144.358-.198l1.493-.553c1.416-.526 3.042-.894 4.77-1.082a24.807 24.807 0 0 1 5.247-.007l9.455 1.002a19.33 19.33 0 0 0 4.081-.005c1.345-.146 2.61-.433 3.71-.842l1.494-.553a2.632 2.632 0 0 1 1.44-.064c.228.056.42.143.554.25.135.107.206.231.206.357Zm0 6.8a.43.43 0 0 1-.145.304 1.138 1.138 0 0 1-.405.24l-1.493.553c-1.416.526-3.043.894-4.77 1.082-1.729.188-3.518.19-5.248.006l-9.455-1.001a19.29 19.29 0 0 0-4.081.005c-1.344.146-2.609.433-3.71.841l-1.493.554a2.191 2.191 0 0 1-.484.115 2.75 2.75 0 0 1-.535.014c-.361-.025-.687-.12-.906-.265-.219-.144-.313-.326-.261-.504.051-.179.244-.34.536-.448l1.493-.554c1.416-.525 3.042-.894 4.77-1.081a24.806 24.806 0 0 1 5.247-.007l9.455 1.002a19.33 19.33 0 0 0 4.081-.005c1.345-.146 2.61-.433 3.71-.842l1.494-.553a2.632 2.632 0 0 1 1.44-.064c.228.056.42.143.554.25.135.107.206.231.206.357Z"/></svg>