<svg xmlns="http://www.w3.org/2000/svg" width="84" height="67" fill="none"><path fill="#658F9A" d="m28.333 43.5 9.508-22h10.695L41.316 37h15.54L48.15 47h19.462C76.097 47 83 40.78 83 33.133c0-4.351-2.203-8.367-6.042-11.016a2.199 2.199 0 0 1-.858-1.135C73.889 14.057 66.783 9.22 58.819 9.22c-1.468 0-2.93.161-4.345.48-.977.218-2.003-.133-2.573-.885C48.184 3.922 42.059 1 35.516 1 30.54 1 25.779 2.674 22.11 5.714c-3.647 3.02-5.913 7.127-6.38 11.564-.08.767-.6 1.44-1.37 1.77-.237.103-.477.215-.715.334a2.589 2.589 0 0 1-.643.22c-3.355.68-6.402 2.388-8.58 4.812C2.183 26.905 1 29.92 1 33.133 1 40.779 7.903 47 16.388 47H40.15l1.167-3.632-12.984.132Z"/><path fill="#FFDE0F" d="M42 36.565 49.724 21H36.483L26 44.048h14.069l-1.217 3.624-1.18 3.519L33.034 65l12.124-13.81 3.09-3.518L58 36.565H42Z"/></svg>