<svg xmlns="http://www.w3.org/2000/svg" width="72" height="67" fill="none"><path fill="#487C93" d="M64.2 6.484C61.653 3.448 51.61 0 36.076 0 20.543 0 10.296 2.904 7.95 6.484c-4.495 6.87 13.028 12.224 7.032 17.29C2.936 33.959 6.75 44.28 10.296 47.55c4.687 4.32 9.21 7.152 21.091 10.806C38.422 60.514 38.422 67 38.422 67s10.706-9.707-9.376-17.29c-8.433-3.185 2.108-11.206 16.407-19.453C62.222 20.586 67.714 10.678 64.2 6.484Zm-28.164 8.24c-13.669 0-24.75-2.813-24.75-6.282 0-3.47 11.081-6.281 24.75-6.281s24.75 2.812 24.75 6.281c0 3.47-11.081 6.281-24.75 6.281Z"/></svg>