<svg xmlns="http://www.w3.org/2000/svg" width="216" height="39" fill="none"><path fill="#002133" d="M54.44 3v35h-9V14L30.89 38h-6.5L9.84 14v24h-9V3h12.15l14.65 24.7L42.29 3h12.15Zm23.417 28.55c5.9 0 9.5-1.1 11.65-4.1h8.5c-1.95 7.5-9.25 11.05-20.15 11.05-11.2 0-19.9-4.4-19.9-15.2 0-10.85 8.45-15.25 20.4-15.25 11.2 0 20.15 3.85 20.15 17.25h-31.8c.95 4.7 5.45 6.25 11.15 6.25Zm.45-17c-5.85 0-9.95 1.15-11.3 5.3h22.35c-1.45-4.15-5.65-5.3-11.05-5.3Zm51.112 1.15h-13.95v8.5c0 5.7 1.1 7.15 6.3 7.15 2.7 0 4.2 0 7.65-.5v6.9c-2.85.5-6.1.75-10.05.75-7.6 0-12.5-2.85-12.5-9.35V15.7h-7.75V8.55h7.75v-6.1l8.6-2.45v8.55h13.95v7.15Zm22.022 15.85c5.9 0 9.5-1.1 11.65-4.1h8.5c-1.95 7.5-9.25 11.05-20.15 11.05-11.2 0-19.9-4.4-19.9-15.2 0-10.85 8.45-15.25 20.4-15.25 11.2 0 20.15 3.85 20.15 17.25h-31.8c.95 4.7 5.45 6.25 11.15 6.25Zm.45-17c-5.85 0-9.95 1.15-11.3 5.3h22.35c-1.45-4.15-5.65-5.3-11.05-5.3Zm43.067 23.95c-12.2 0-20.4-4.4-20.4-15.2 0-10.85 8.2-15.25 20.4-15.25 12.15 0 20.4 4.4 20.4 15.25 0 10.8-8.25 15.2-20.4 15.2Zm0-7.15c7.9 0 11.8-1.95 11.8-8.05 0-6.15-3.9-8.1-11.8-8.1-7.95 0-11.85 1.95-11.85 8.1 0 6.1 3.9 8.05 11.85 8.05Z"/></svg>