<svg xmlns="http://www.w3.org/2000/svg" width="13" height="21" fill="none"><path fill="#fff" d="M6.06.5C2.714.5 0 3.07 0 6.24c.002.973.266 1.93.512 2.355L6.06 20.5l5.303-11.48h-.003c.498-.85.76-1.807.76-2.78C12.12 3.07 9.407.5 6.06.5Zm0 2.87c.399 0 .793.074 1.16.218.368.145.702.356.983.623.282.266.505.582.657.93.153.349.23.722.23 1.099 0 .761-.318 1.491-.887 2.03a3.118 3.118 0 0 1-2.142.84 3.118 3.118 0 0 1-2.143-.84 2.795 2.795 0 0 1-.888-2.03 2.8 2.8 0 0 1 .888-2.03 3.118 3.118 0 0 1 2.143-.84Z"/></svg>