<svg xmlns="http://www.w3.org/2000/svg" width="101" height="101" fill="none"><path fill="#FBB03B" d="M50.375 11.431a1.563 1.563 0 0 1-1.563-1.562V5.188a1.563 1.563 0 1 1 3.126 0v4.68a1.562 1.562 0 0 1-1.563 1.563Zm28.731 11.9a1.561 1.561 0 0 1-1.104-2.667l3.309-3.31a1.562 1.562 0 1 1 2.21 2.21l-3.31 3.31a1.554 1.554 0 0 1-1.105.457Zm16.582 28.732h-4.682a1.563 1.563 0 1 1 0-3.126h4.681a1.563 1.563 0 0 1 0 3.126Zm-13.272 32.04a1.557 1.557 0 0 1-1.105-.458L78 80.335a1.561 1.561 0 1 1 2.21-2.208l3.31 3.309a1.562 1.562 0 0 1-1.105 2.667ZM50.375 97.375a1.563 1.563 0 0 1-1.563-1.563v-4.68a1.563 1.563 0 1 1 3.126 0v4.68a1.563 1.563 0 0 1-1.563 1.563Zm-32.04-13.272a1.56 1.56 0 0 1-1.105-2.667l3.31-3.31a1.561 1.561 0 1 1 2.208 2.21l-3.309 3.31a1.557 1.557 0 0 1-1.105.457Zm-8.591-32.04H5.063a1.563 1.563 0 1 1 0-3.126h4.68a1.562 1.562 0 1 1 0 3.126Zm11.9-28.732a1.56 1.56 0 0 1-1.105-.458l-3.31-3.309a1.562 1.562 0 1 1 2.21-2.21l3.31 3.31a1.56 1.56 0 0 1-1.105 2.667Z"/><path fill="#FBE70E" d="M50.375 11.431a1.563 1.563 0 0 1-1.563-1.562V5.188a1.563 1.563 0 1 1 3.126 0v4.68a1.562 1.562 0 0 1-1.563 1.563Zm28.731 11.9a1.561 1.561 0 0 1-1.104-2.667l3.309-3.31a1.562 1.562 0 1 1 2.21 2.21l-3.31 3.31a1.554 1.554 0 0 1-1.105.457Zm16.582 28.732h-4.682a1.563 1.563 0 1 1 0-3.126h4.681a1.563 1.563 0 0 1 0 3.126Zm-13.272 32.04a1.557 1.557 0 0 1-1.105-.458L78 80.335a1.561 1.561 0 1 1 2.21-2.208l3.31 3.309a1.562 1.562 0 0 1-1.105 2.667ZM50.375 97.375a1.563 1.563 0 0 1-1.563-1.563v-4.68a1.563 1.563 0 1 1 3.126 0v4.68a1.563 1.563 0 0 1-1.563 1.563Zm-32.04-13.272a1.56 1.56 0 0 1-1.105-2.667l3.31-3.31a1.561 1.561 0 1 1 2.208 2.21l-3.309 3.31a1.557 1.557 0 0 1-1.105.457Zm-8.591-32.04H5.063a1.563 1.563 0 1 1 0-3.126h4.68a1.562 1.562 0 1 1 0 3.126Zm11.9-28.732a1.56 1.56 0 0 1-1.105-.458l-3.31-3.309a1.562 1.562 0 1 1 2.21-2.21l3.31 3.31a1.56 1.56 0 0 1-1.105 2.667Zm44.265-8.812a1.562 1.562 0 0 1-1.443-2.161l1.79-4.325a1.56 1.56 0 0 1 2.548-.509 1.561 1.561 0 0 1 .34 1.703l-1.79 4.325a1.56 1.56 0 0 1-1.445.967Zm22 21.983a1.565 1.565 0 0 1-.598-3.008l4.323-1.792a1.564 1.564 0 0 1 1.197 2.887l-4.323 1.792c-.19.08-.393.12-.599.12Zm4.335 32.887c-.205 0-.408-.041-.597-.12l-4.325-1.79a1.562 1.562 0 0 1 1.194-2.888l4.325 1.79a1.563 1.563 0 0 1-.597 3.008ZM67.73 93.92a1.559 1.559 0 0 1-1.444-.965l-1.792-4.324a1.565 1.565 0 0 1 2.888-1.197l1.792 4.324a1.563 1.563 0 0 1-1.444 2.162Zm-34.683.013a1.563 1.563 0 0 1-1.443-2.161l1.79-4.325a1.564 1.564 0 0 1 2.548-.509 1.561 1.561 0 0 1 .34 1.703l-1.79 4.325a1.56 1.56 0 0 1-1.445.967ZM8.518 69.419a1.565 1.565 0 0 1-.598-3.008l4.324-1.792a1.565 1.565 0 0 1 2.161 1.443 1.563 1.563 0 0 1-.964 1.444l-4.324 1.792c-.19.08-.393.12-.598.12Zm4.312-32.89a1.568 1.568 0 0 1-.597-.121l-4.325-1.79a1.563 1.563 0 0 1 1.194-2.888l4.325 1.79a1.562 1.562 0 0 1-.597 3.008Zm21.984-22a1.56 1.56 0 0 1-1.444-.965l-1.792-4.323a1.563 1.563 0 0 1 2.886-1.196l1.792 4.324a1.564 1.564 0 0 1-1.442 2.16Z"/><path fill="#FBE70E" d="M49.938 86.875c19.847 0 35.937-16.09 35.937-35.938C85.875 31.09 69.785 15 49.937 15 30.09 15 14 31.09 14 50.938c0 19.847 16.09 35.937 35.938 35.937Z"/><path fill="#FABD05" d="M77.46 28a35.865 35.865 0 0 1 2.082 12.069c0 19.848-16.089 35.937-35.937 35.937-11.096 0-21.013-5.03-27.605-12.931 4.96 13.91 18.242 23.869 33.855 23.869 19.848 0 35.937-16.09 35.937-35.938A35.794 35.794 0 0 0 77.46 28Z"/></svg>